<svg xmlns="http://www.w3.org/2000/svg" width="32" height="32"><path d="M13 5V3.998C13 2.898 13.898 2 15.005 2h.99A2 2 0 0118 3.998V5h2.004c.551 0 .996.447.996.999v1.002a.995.995 0 01-.996.999h-9.009a.997.997 0 01-.996-.999V5.999c0-.556.446-.999.996-.999h2.004zm-1-1h-.997c-1.104 0-2 .891-2.003 2H7.997C6.894 6 6 6.89 6 8.004v20.993c0 1.107.891 2.004 1.997 2.004h15.005c1.103 0 1.997-.89 1.997-2.004V8.004A1.998 1.998 0 0023.002 6h-1.003a2.002 2.002 0 00-2.003-2h-.997a3.007 3.007 0 00-3.009-3h-.982a3.002 3.002 0 00-3.009 3zm10 3h1c.545 0 1 .449 1 1.003v20.994A.995.995 0 0123 30H8c-.545 0-1-.449-1-1.003V8.003A.995.995 0 018 7h1c.003 1.105.895 2 2.003 2h8.994c1.104 0 2-.891 2.003-2zm-6.5-2a.5.5 0 100-1 .5.5 0 000 1zM14 14v1h8v-1h-8zm-5-1h3v3H9v-3zm1 1v1h1v-1h-1zm-1 4h3v3H9v-3zm1 1v1h1v-1h-1zm4 0v1h8v-1h-8zm-5 4h3v3H9v-3zm1 1v1h1v-1h-1zm4 0v1h8v-1h-8z" fill="#5795C2"/></svg>