<svg xmlns="http://www.w3.org/2000/svg" width="28" height="28"><path d="M13.062 18.266l-.234 5.75-.031.344-6.563-.453c-.812-.063-1.484-.828-1.781-1.516-.625-1.453.187-3.172.656-4.562 0 0 1.203.187 7.953.438zM7.016 9.109l2.812 5.922-2.297-1.437c-3.516 4.016-3.844 7-3.844 7L.718 15.016c-.609-.906-.063-1.891-.063-1.891s.547-.984 1.781-2.938L.248 8.843zm19.234 8.078l-2.938 5.609c-.406 1.016-1.531 1.109-1.531 1.109s-1.109.109-3.422.187l.125 2.562-3.594-5.734 3.297-5.656.109 2.703c5.297.641 7.953-.781 7.953-.781zM13.984 2.75s-.734.969-4.141 6.797L4.89 6.625l-.297-.187L8.109.875c.438-.688 1.422-.938 2.188-.859 1.563.141 2.688 1.656 3.687 2.734zm10.235 4.797l3.313 5.672c.422.703.172 1.687-.234 2.344-.844 1.313-2.719 1.625-4.125 2.016 0 0-.531-1.109-4.141-6.813l4.891-3.047zm-2.235-3.531l2.219-1.297-3.437 5.828-6.547-.313 2.359-1.344C14.703 1.906 12.219.187 12.219.187l6.328.016c1.094-.094 1.687.844 1.687.844s.609.953 1.75 2.969z" fill="#5795C2"/></svg>